<svg xmlns="http://www.w3.org/2000/svg" viewBox="0 0 198.9 162.9"><defs><style>.cls-1{fill:#ed70a7;}.cls-1,.cls-2,.cls-3{fill-rule:evenodd;}.cls-2{fill:#d35298;}.cls-3,.cls-5{fill:#fff;}.cls-4{fill:#272d63;}</style></defs><g id="Layer_2" data-name="Layer 2"><g id="katman_1" data-name="katman 1"><g id="Jelly"><path id="Body-Copy-2" class="cls-1" d="M188.8,150.4c-3.7,5.6-6.5,12.4-14,12.4-12.6,0-13.3-19.5-25.9-19.5s-11.9,19.5-24.6,19.5S111,143.3,98.4,143.3s-11.9,19.5-24.6,19.5-13.3-19.5-25.9-19.5S36,162.8,23.3,162.8c-4,0-6.8-1.9-9.1-4.6A107.92,107.92,0,0,1,0,104.4C0,46.8,44.5,0,99.4,0s99.4,46.7,99.4,104.4A106.14,106.14,0,0,1,188.8,150.4Z"/><path id="Body-Copy-4" class="cls-1" d="M188.8,150.4c-3.7,5.6-6.5,12.4-14,12.4-12.6,0-13.3-19.5-25.9-19.5s-11.9,19.5-24.6,19.5S111,143.3,98.4,143.3s-11.9,19.5-24.6,19.5-13.3-19.5-25.9-19.5S36,162.8,23.3,162.8c-4,0-6.8-1.9-9.1-4.6A107.92,107.92,0,0,1,0,104.4C0,46.8,44.5,0,99.4,0s99.4,46.7,99.4,104.4A106.14,106.14,0,0,1,188.8,150.4Z"/><path id="Combined-Shape" class="cls-2" d="M167.3,160.8q39.15-58.2,2-129a104.15,104.15,0,0,1,29.6,72.9,105.12,105.12,0,0,1-10.5,45.8c-3.8,5.6-6.7,12.4-14.5,12.4A11.06,11.06,0,0,1,167.3,160.8Z"/><g id="Eyes-Copy-2"><path id="Oval" class="cls-3" d="M94.2,130.6c34.6,0,49.1-20.1,49.1-48.6s-22-54.7-49.1-54.7S45.1,53.5,45.1,82,59.6,130.6,94.2,130.6Z"/><g id="Pupil"><ellipse id="Oval-2" data-name="Oval" class="cls-4" cx="80.92" cy="63.26" rx="18.4" ry="20.3"/><ellipse id="Oval-3" data-name="Oval" class="cls-5" cx="77.92" cy="58.56" rx="9.2" ry="9.4"/></g></g></g></g></g></svg>