<svg xmlns="http://www.w3.org/2000/svg" viewBox="0 0 198.9 162.9"><defs><style>.cls-1{fill:#fff;fill-rule:evenodd;}</style></defs><g id="Layer_2" data-name="Layer 2"><g id="katman_1" data-name="katman 1"><path class="cls-1" d="M197.69,88.73C190.49,38.48,149.23,0,99.4,0,44.5,0,0,46.8,0,104.4a107.92,107.92,0,0,0,14.2,53.8c2.3,2.7,5.1,4.6,9.1,4.6,12.7,0,12-19.5,24.6-19.5s13.3,19.5,25.9,19.5,12-19.5,24.6-19.5,13.3,19.5,25.9,19.5,12-19.5,24.6-19.5c9.7,0,12.35,11.55,18.81,16.87l-.41.63a11.06,11.06,0,0,0,6.6,2.1,12.16,12.16,0,0,0,1.85-.15c6.79-.56,9.51-7,13.05-12.35a104.77,104.77,0,0,0,9-30.48l0-.21,0-.17a105.27,105.27,0,0,0,1.05-14.84A106.44,106.44,0,0,0,197.69,88.73ZM94.2,130.6C59.6,130.6,45,110.5,45.1,82s22-54.7,49.1-54.7S143.3,53.5,143.3,82,128.8,130.6,94.2,130.6Z"/><path class="cls-1" d="M80.92,43c-10.16,0-18.4,9.09-18.4,20.3s8.24,20.3,18.4,20.3,18.4-9.09,18.4-20.3S91.08,43,80.92,43Zm-3,25a9.4,9.4,0,1,1,9.2-9.4A9.3,9.3,0,0,1,77.92,68Z"/></g></g></svg>