<svg width="712" height="384" viewBox="0 0 712 384" fill="none" xmlns="http://www.w3.org/2000/svg">
<path d="M525.4 140.2H498.2L483.4 216.4H507.5C523.5 216.4 535.4 213.4 543.3 207.4C551.1 201.4 556.4 191.3 559.2 177.2C561.8 163.7 560.6 154.1 555.6 148.5C550.5 142.9 540.5 140.2 525.4 140.2Z" fill="currentColor"/>
<path d="M215.6 140.2H188.4L173.6 216.4H197.7C213.7 216.4 225.6 213.4 233.5 207.4C241.3 201.4 246.6 191.3 249.4 177.2C252 163.7 250.8 154.1 245.8 148.5C240.8 142.9 230.7 140.2 215.6 140.2Z" fill="currentColor"/>
<path d="M355.6 10C164.7 10 10 91.4 10 191.8C10 292.2 164.7 373.6 355.6 373.6C546.5 373.6 701.2 292.2 701.2 191.8C701.2 91.4 546.5 10 355.6 10ZM265.5 224.6C257.6 232 248.8 237.3 239.1 240.4C229.4 243.6 217.1 245.1 202.1 245.1H168.1L158.7 293.5H119L154.4 111.3H230.7C253.7 111.3 270.4 117.3 280.9 129.4C291.4 141.5 294.6 158.3 290.4 179.9C288.7 188.8 285.7 196.9 281.6 204.3C277.5 211.7 272.1 218.5 265.5 224.6ZM385.1 245.2L400.8 164.6C402.6 155.4 401.9 149.2 398.8 145.8C395.7 142.5 389.1 140.8 379 140.8H347.5L327.2 245.2H287.8L323.3 63H362.7L353.3 111.4H388.4C410.5 111.4 425.7 115.3 434.1 122.9C442.5 130.6 445 143.1 441.6 160.3L425.1 245.1H385.1V245.2ZM600.2 180C598.5 188.9 595.5 197 591.4 204.4C587.3 211.8 581.9 218.5 575.2 224.6C567.3 232 558.5 237.3 548.8 240.4C539.1 243.6 526.8 245.1 511.8 245.1H477.8L468.4 293.5H428.7L464.1 111.3H540.4C563.4 111.3 580.1 117.3 590.6 129.4C601.2 141.5 604.4 158.4 600.2 180Z" fill="currentColor"/>
</svg>
