<svg width="140" height="112" viewBox="0 0 140 112" fill="none" xmlns="http://www.w3.org/2000/svg">
<g clip-path="url(#clip0_2_16)">
<path d="M112.46 110.48C122.08 109.88 126.24 105.31 127.18 94.99C127.91 86.95 128.18 82.93 128.54 74.88C128.97 65.28 133.82 59.75 138.5 57.18C139.91 56.38 139.9 54.53 138.5 53.64C133.62 50.7 128.89 44.45 128.52 36.19C128.16 28.29 127.89 24.34 127.17 16.44C126.15 5.31 122.62 1.77 112.99 1.16C84.2047 -0.410825 55.3552 -0.410825 26.57 1.16C16.95 1.77 13.41 5.31 12.39 16.44C11.67 24.34 11.4 28.29 11.04 36.19C10.66 44.45 5.93997 50.7 1.05997 53.64C0.740286 53.812 0.47316 54.0674 0.286961 54.3791C0.100762 54.6907 0.00244141 55.047 0.00244141 55.41C0.00244141 55.773 0.100762 56.1293 0.286961 56.4409C0.47316 56.7526 0.740286 57.008 1.05997 57.18C5.74997 59.67 10.59 65.19 11.02 74.88C11.38 82.92 11.65 86.94 12.38 94.99C13.32 105.31 17.48 109.88 27.1 110.48C55.62 112.01 83.95 112.01 112.46 110.48ZM69.55 92.63C60.78 93.12 49.85 88.83 43.6 82.68C42.37 81.55 41.87 80.15 41.84 78.76C41.81 77.65 42.07 76.45 42.88 75.53C43.75 74.39 44.19 73.82 45.06 72.68C46.16 71.3 47.36 70.66 48.76 70.67C50.34 70.68 51.84 71.34 53.44 72.38C58.5 75.68 64.07 77.58 70.75 77.58C75.85 77.58 80.53 74.69 79.98 71.01C77.8 56.41 41.61 64.82 42.15 40.38C42.44 27.52 55.29 18.5 67.9 18.81C77.67 19.06 85.37 21.9 90.98 25.52C92.38 26.47 93.35 28.35 93.39 30.21C93.41 31.33 93.16 32.34 92.53 33.27C91.88 34.27 91.56 34.76 90.9 35.76C89.72 37.42 88.33 38.25 86.56 38.24C85.35 38.24 84.04 37.76 82.64 37.1C78.44 34.93 74.08 33.79 68.79 33.79C63.32 33.79 59.64 37.31 60.03 39.89C62.21 54.36 97.38 45.86 97.87 69.96C98.17 84.84 82.29 92.48 69.53 92.64L69.55 92.63Z" fill="currentColor"/>
</g>
<defs>
<clipPath id="clip0_2_16">
<rect width="139.56" height="111.63" fill="currentColor"/>
</clipPath>
</defs>
</svg>
