<svg width="512" height="512" viewBox="0 0 512 512" fill="none" xmlns="http://www.w3.org/2000/svg">
<g clip-path="url(#clip0_2_37)">
<path d="M462 0H50C22.4 0 0 22.4 0 50V462C0 489.6 22.4 512 50 512H462C489.6 512 512 489.6 512 462V50C512 22.4 489.6 0 462 0ZM297 284.1H232.8V467H181.9V284.1H118V243H297V284.1ZM462.9 434.6C458.2 443.1 451.7 450 443.6 455.3C435.5 460.6 426 464.3 415.2 466.6C404.4 468.9 393 470 381 470C368.7 470 357 469 345.9 466.9C334.8 464.8 325.2 461.7 317 457.5V407.4C326.1 415 335.9 420.7 346.6 424.5C357.2 428.3 368 430.2 378.8 430.2C385.2 430.2 390.7 429.6 395.5 428.5C400.2 427.4 404.2 425.8 407.4 423.7C410.6 421.7 413 419.3 414.5 416.5C416.1 413.7 416.8 410.7 416.8 407.5C416.8 403.1 415.5 399.2 413 395.8C410.5 392.4 407.1 389.2 402.7 386.3C398.4 383.4 393.2 380.6 387.3 377.9C381.4 375.2 374.9 372.4 368.1 369.6C350.6 362.3 337.5 353.4 328.9 342.8C320.3 332.3 316 319.5 316 304.6C316 292.9 318.3 282.9 323 274.5C327.7 266.1 334.1 259.2 342.2 253.8C350.3 248.4 359.7 244.4 370.3 241.8C380.9 239.2 392.2 238 404.1 238C415.8 238 426.1 238.7 435.2 240.1C444.2 241.5 452.5 243.7 460.2 246.6V293.4C456.4 290.8 452.3 288.5 447.9 286.5C443.5 284.5 438.9 282.9 434.2 281.6C429.5 280.3 424.8 279.3 420.2 278.7C415.6 278.1 411.1 277.8 407 277.8C401.3 277.8 396 278.3 391.3 279.4C386.6 280.5 382.6 282 379.4 284C376.2 286 373.7 288.4 371.9 291.1C370.1 293.9 369.2 297 369.2 300.4C369.2 304.2 370.2 307.5 372.2 310.5C374.2 313.5 377 316.3 380.7 318.9C384.4 321.6 388.8 324.2 394 326.7C399.2 329.3 405.1 331.9 411.7 334.6C420.7 338.4 428.7 342.3 435.9 346.6C443 350.8 449.2 355.6 454.3 360.9C459.4 366.2 463.3 372.3 466 379.1C468.7 385.9 470 394 470 403C470 415.6 467.6 426.1 462.9 434.6Z" fill="currentColor"/>
</g>
<defs>
<clipPath id="clip0_2_37">
<rect width="512" height="512" fill="currentColor"/>
</clipPath>
</defs>
</svg>
