<svg width="630" height="630" viewBox="0 0 630 630" fill="none" xmlns="http://www.w3.org/2000/svg">
<g clip-path="url(#clip0_2_41)">
<path d="M0 0V630H630V0H0ZM343.1 491.4C343.1 552.7 307.2 580.6 254.7 580.6C207.3 580.6 179.8 556.1 165.9 526.5L214.1 497.3C223.4 513.8 231.9 527.8 252.2 527.8C271.7 527.8 283.9 520.2 283.9 490.6V289.3H343.1V491.4ZM483 580.7C428 580.7 392.5 554.5 375.1 520.2L423.2 492.2C435.9 512.9 452.4 528.2 481.6 528.2C506.1 528.2 521.8 515.9 521.8 499C521.8 478.7 505.7 471.5 478.7 459.7L463.9 453.3C421.2 435.1 392.8 412.3 392.8 364.1C392.8 319.7 426.6 285.9 479.5 285.9C517.1 285.9 544.2 299 563.7 333.3L517.6 362.9C507.5 344.7 496.5 337.5 479.5 337.5C462.2 337.5 451.2 348.5 451.2 362.9C451.2 380.7 462.2 387.9 487.6 398.9L502.4 405.2C552.7 426.8 581.1 448.8 581.1 498.2C581.1 551.5 539.2 580.7 483 580.7Z" fill="currentColor"/>
</g>
<defs>
<clipPath id="clip0_2_41">
<rect width="630" height="630" fill="currentColor"/>
</clipPath>
</defs>
</svg>
